<svg width="14" height="17" viewBox="0 0 14 17" fill="none" xmlns="http://www.w3.org/2000/svg">
<path d="M0 15C0 15.8438 0.65625 16.5 1.5 16.5H12.5C13.3125 16.5 14 15.8438 14 15V6.5H0V15ZM10 8.875C10 8.6875 10.1562 8.5 10.375 8.5H11.625C11.8125 8.5 12 8.6875 12 8.875V10.125C12 10.3438 11.8125 10.5 11.625 10.5H10.375C10.1562 10.5 10 10.3438 10 10.125V8.875ZM10 12.875C10 12.6875 10.1562 12.5 10.375 12.5H11.625C11.8125 12.5 12 12.6875 12 12.875V14.125C12 14.3438 11.8125 14.5 11.625 14.5H10.375C10.1562 14.5 10 14.3438 10 14.125V12.875ZM6 8.875C6 8.6875 6.15625 8.5 6.375 8.5H7.625C7.8125 8.5 8 8.6875 8 8.875V10.125C8 10.3438 7.8125 10.5 7.625 10.5H6.375C6.15625 10.5 6 10.3438 6 10.125V8.875ZM6 12.875C6 12.6875 6.15625 12.5 6.375 12.5H7.625C7.8125 12.5 8 12.6875 8 12.875V14.125C8 14.3438 7.8125 14.5 7.625 14.5H6.375C6.15625 14.5 6 14.3438 6 14.125V12.875ZM2 8.875C2 8.6875 2.15625 8.5 2.375 8.5H3.625C3.8125 8.5 4 8.6875 4 8.875V10.125C4 10.3438 3.8125 10.5 3.625 10.5H2.375C2.15625 10.5 2 10.3438 2 10.125V8.875ZM2 12.875C2 12.6875 2.15625 12.5 2.375 12.5H3.625C3.8125 12.5 4 12.6875 4 12.875V14.125C4 14.3438 3.8125 14.5 3.625 14.5H2.375C2.15625 14.5 2 14.3438 2 14.125V12.875ZM12.5 2.5H11V1C11 0.75 10.75 0.5 10.5 0.5H9.5C9.21875 0.5 9 0.75 9 1V2.5H5V1C5 0.75 4.75 0.5 4.5 0.5H3.5C3.21875 0.5 3 0.75 3 1V2.5H1.5C0.65625 2.5 0 3.1875 0 4V5.5H14V4C14 3.1875 13.3125 2.5 12.5 2.5Z" fill="black"/>
</svg>
