<svg width="9" height="11" viewBox="0 0 9 11" fill="none" xmlns="http://www.w3.org/2000/svg">
<path d="M2.63672 0.601562C2.73438 0.386719 2.94922 0.25 3.18359 0.25H5.54688C5.78125 0.25 5.99609 0.386719 6.09375 0.601562L6.25 0.875H8.125C8.45703 0.875 8.75 1.16797 8.75 1.5C8.75 1.85156 8.45703 2.125 8.125 2.125H0.625C0.273438 2.125 0 1.85156 0 1.5C0 1.16797 0.273438 0.875 0.625 0.875H2.5L2.63672 0.601562ZM7.69531 9.37109C7.67578 9.87891 7.26562 10.25 6.75781 10.25H1.97266C1.46484 10.25 1.05469 9.87891 1.03516 9.37109L0.605469 2.75H8.125L7.69531 9.37109Z" fill="black"/>
</svg>
