<svg width="9" height="13" viewBox="0 0 9 13" fill="none" xmlns="http://www.w3.org/2000/svg">
<path d="M6 0.5V3.5H9L6 0.5ZM5.25 3.5V0.5H1.125C0.492188 0.5 0 1.01562 0 1.625V11.375C0 12.0078 0.492188 12.5 1.125 12.5H7.875C8.48438 12.5 9 12.0078 9 11.375V4.25H6C5.57812 4.25 5.25 3.92188 5.25 3.5ZM6.375 10.25H2.625C2.41406 10.25 2.25 10.0859 2.25 9.875C2.25 9.6875 2.41406 9.5 2.625 9.5H6.375C6.5625 9.5 6.75 9.6875 6.75 9.875C6.75 10.0859 6.5625 10.25 6.375 10.25ZM6.375 8.75H2.625C2.41406 8.75 2.25 8.58594 2.25 8.375C2.25 8.1875 2.41406 8 2.625 8H6.375C6.5625 8 6.75 8.1875 6.75 8.375C6.75 8.58594 6.5625 8.75 6.375 8.75ZM6.75 6.875C6.75 7.08594 6.5625 7.25 6.375 7.25H2.625C2.41406 7.25 2.25 7.08594 2.25 6.875C2.25 6.6875 2.41406 6.5 2.625 6.5H6.375C6.5625 6.5 6.75 6.6875 6.75 6.875Z" fill="black"/>
</svg>
