<svg width="10" height="11" viewBox="0 0 10 11" fill="none" xmlns="http://www.w3.org/2000/svg">
<path d="M10 5.25C10 8.02344 7.75391 10.25 5 10.25C2.22656 10.25 0 8.02344 0 5.25C0 2.49609 2.22656 0.25 5 0.25C7.75391 0.25 10 2.49609 10 5.25ZM1.93359 3.08203C1.50391 3.70703 1.25 4.44922 1.25 5.25C1.25 7.32031 2.91016 9 5 9C5.80078 9 6.54297 8.74609 7.16797 8.31641L1.93359 3.08203ZM8.75 5.25C8.75 3.17969 7.07031 1.5 5 1.5C4.17969 1.5 3.4375 1.77344 2.8125 2.20312L8.04688 7.4375C8.47656 6.8125 8.75 6.07031 8.75 5.25Z" fill="black"/>
</svg>
