<svg width="14" height="16" viewBox="0 0 14 16" fill="none" xmlns="http://www.w3.org/2000/svg">
<path d="M12.6875 2.3125C12.3125 1.90625 11.6562 1.90625 11.2812 2.3125L1.28125 12.3125C0.875 12.6875 0.875 13.3438 1.28125 13.7188C1.46875 13.9062 1.71875 14 2 14C2.25 14 2.5 13.9062 2.6875 13.7188L12.6875 3.71875C13.0938 3.34375 13.0938 2.6875 12.6875 2.3125ZM3 6C4.09375 6 5 5.125 5 4C5 2.90625 4.09375 2.03125 3 2.03125C1.875 2.03125 1 2.90625 1 4C1 5.125 1.875 6 3 6ZM11 10C9.875 10 9 10.9062 9 12C9 13.125 9.875 14 11 14C12.0938 14 13 13.125 13 12C13 10.9062 12.0938 10 11 10Z" fill="black"/>
</svg>
