<svg width="109" height="26" viewBox="0 0 109 26" fill="none" xmlns="http://www.w3.org/2000/svg">
<circle cx="12.5" cy="12.5" r="12.5" fill="black"/>
<path d="M11.6122 19V9.584L9.45219 10.904V8.776L11.6122 7.48H13.5802V19H11.6122Z" fill="white"/>
<line x1="26" y1="12.5" x2="41" y2="12.5" stroke="#666666" stroke-dasharray="2 2"/>
<circle cx="54.5" cy="12.5" r="12.5" fill="#DDDDDD"/>
<path d="M50.0344 18.984V17.304L54.9624 12.912C55.3464 12.5707 55.613 12.248 55.7624 11.944C55.9117 11.64 55.9864 11.3467 55.9864 11.064C55.9864 10.68 55.9037 10.3387 55.7384 10.04C55.573 9.736 55.3437 9.496 55.0504 9.32C54.7624 9.144 54.429 9.056 54.0504 9.056C53.6504 9.056 53.2957 9.14933 52.9864 9.336C52.6824 9.51733 52.445 9.76 52.2744 10.064C52.1037 10.368 52.0237 10.696 52.0344 11.048H50.0504C50.0504 10.28 50.221 9.61067 50.5624 9.04C50.909 8.46933 51.3837 8.02667 51.9864 7.712C52.5944 7.39733 53.2957 7.24 54.0904 7.24C54.8264 7.24 55.4877 7.40533 56.0744 7.736C56.661 8.06133 57.1224 8.51467 57.4584 9.096C57.7944 9.672 57.9624 10.336 57.9624 11.088C57.9624 11.6373 57.8877 12.0987 57.7384 12.472C57.589 12.8453 57.365 13.1893 57.0664 13.504C56.773 13.8187 56.4077 14.168 55.9704 14.552L52.4744 17.648L52.2984 17.168H57.9624V18.984H50.0344Z" fill="#666666"/>
<line x1="68" y1="12.5" x2="83" y2="12.5" stroke="#666666" stroke-dasharray="2 2"/>
<circle cx="96.5" cy="12.5" r="12.5" fill="#DDDDDD"/>
<path d="M95.7676 19.216C95.1916 19.216 94.6476 19.104 94.1356 18.88C93.6236 18.656 93.1782 18.3387 92.7996 17.928C92.4262 17.5173 92.1569 17.032 91.9916 16.472L93.8556 15.968C93.9889 16.4267 94.2316 16.7813 94.5836 17.032C94.9409 17.2773 95.3329 17.3973 95.7596 17.392C96.1382 17.392 96.4769 17.304 96.7756 17.128C97.0742 16.952 97.3089 16.7147 97.4796 16.416C97.6502 16.112 97.7356 15.7733 97.7356 15.4C97.7356 14.8293 97.5516 14.352 97.1836 13.968C96.8156 13.584 96.3409 13.392 95.7596 13.392C95.5836 13.392 95.4102 13.416 95.2396 13.464C95.0742 13.512 94.9142 13.5787 94.7596 13.664L93.8796 12.144L97.7516 8.832L97.9196 9.296H92.4396V7.48H99.5036V9.304L96.3916 12.296L96.3756 11.728C97.0742 11.776 97.6689 11.9707 98.1596 12.312C98.6556 12.6533 99.0342 13.0933 99.2956 13.632C99.5622 14.1707 99.6956 14.76 99.6956 15.4C99.6956 16.1253 99.5169 16.776 99.1596 17.352C98.8076 17.928 98.3329 18.384 97.7356 18.72C97.1436 19.0507 96.4876 19.216 95.7676 19.216Z" fill="#666666"/>
</svg>
